# xmcd
#
# Track frame offsets: 
#        150
#        19043
#        36900
#        53292
#        69551
#        81781
#        96111
#        111522
#        125329
#        142730
#        161117
#        174209
#        191158
#        203784
#        222868
#
# Disc length: 3170 seconds
#
# Revision: 0
# Processed by: cddbd v1.5.2PL0 Copyright (c) Steve Scherf et al.
# Submitted via: ExactAudioCopy v1.3
#
DISCID=c90c600f
DTITLE=Deys - Oczka
DYEAR=2018
DGENRE=Rap
TTITLE0=Nie chcę być starszy niż dziś
TTITLE1=Blade Rynner (ft. Igrekzet)
TTITLE2=Przez kogo nie śpisz
TTITLE3=Odpięte wrotki (ft. Szpaku)
TTITLE4=Koszmary twojej mamy (ft. Kobik)
TTITLE5=Byłem kiedyś na imprezie techno
TTITLE6=mikrozachwyt (ft. Dianka)
TTITLE7=Złośliwości (ft. Barto'cut12)
TTITLE8=Nintendo (ft. Schafter)
TTITLE9=Sławny dzieciak (ft. Przyłu)
TTITLE10=Face Tat (ft. Młodszy Joe)
TTITLE11=Zabawki
TTITLE12=Hippie
TTITLE13=Straszny
TTITLE14=Oczka (ft. Kukon)
EXTD=
EXTT0=
EXTT1=
EXTT2=
EXTT3=
EXTT4=
EXTT5=
EXTT6=
EXTT7=
EXTT8=
EXTT9=
EXTT10=
EXTT11=
EXTT12=
EXTT13=
EXTT14=
PLAYORDER=
